<svg width="49" height="47" viewBox="0 0 49 47" fill="none" xmlns="http://www.w3.org/2000/svg">
<path d="M40.7556 40.2814C44.302 37.2009 46.8096 33.1893 47.9616 28.7533C49.1136 24.3172 48.8583 19.6559 47.2281 15.3578C45.5978 11.0598 42.6657 7.318 38.802 4.60497C34.9384 1.89195 30.3165 0.329433 25.5202 0.114807C20.724 -0.0998192 15.9684 1.04304 11.8543 3.39906C7.74018 5.75509 4.45202 9.2186 2.40516 13.3521C0.358294 17.4855 -0.355415 22.1036 0.354096 26.6229C1.06361 31.1422 3.16455 35.36 6.39157 38.7436C8.53938 40.9957 11.133 42.8222 14.0239 44.1187C16.9147 45.4152 20.046 46.1561 23.2382 46.2989C26.4305 46.4418 29.621 45.9838 32.627 44.9512C35.6329 43.9186 38.3952 42.3317 40.7556 40.2814Z" fill="url(#paint0_linear_161_1354)"/>
<defs>
<linearGradient id="paint0_linear_161_1354" x1="1.62055" y1="32.4284" x2="46.8308" y2="27.3163" gradientUnits="userSpaceOnUse">
<stop stop-color="#DC0836"/>
<stop offset="1" stop-color="#535E79"/>
</linearGradient>
</defs>
</svg>
