<svg width="1428" height="693" viewBox="0 0 1428 693" fill="none" xmlns="http://www.w3.org/2000/svg">
<path d="M363.781 0.00101128C304.948 0.00985859 246.994 13.5961 194.889 39.5951C142.783 65.5941 98.0793 103.23 64.6102 149.277C31.1411 195.324 9.90481 248.408 2.7219 303.979C-4.46101 359.55 2.62369 415.949 23.3687 468.342C44.1136 520.736 77.9 567.56 121.832 604.802C165.763 642.043 218.529 668.591 275.606 682.168C332.684 695.746 392.369 695.949 449.547 682.76C506.725 669.571 559.689 643.383 603.899 606.441C605.421 605.058 606.322 603.168 606.41 601.167C606.499 599.167 605.77 597.211 604.375 595.711C602.981 594.212 601.03 593.285 598.932 593.125C596.834 592.966 594.753 593.586 593.126 594.856C544.619 635.297 485.247 662.099 421.65 672.267C358.052 682.434 292.737 675.566 233.006 652.429C173.276 629.293 121.486 590.801 83.4265 541.257C45.3674 491.713 22.5399 433.071 17.4966 371.888C12.4533 310.704 25.3931 249.392 54.8689 194.806C84.3447 140.221 129.195 94.5143 184.403 62.7974C239.612 31.0804 303.004 14.6036 367.489 15.2093C431.974 15.815 495.012 33.4792 549.552 66.227C646.989 124.918 701.928 239.737 755.036 350.712C808.898 462.814 864.053 578.659 963.806 638.682C1006.17 664.141 1053.61 681.002 1103.14 688.21C1152.67 695.418 1203.23 692.817 1251.66 680.572C1300.09 668.326 1345.34 646.699 1384.57 617.044C1423.81 587.389 1456.2 550.344 1479.7 508.229C1480.7 506.428 1480.92 504.32 1480.29 502.369C1479.67 500.417 1478.25 498.782 1476.36 497.824C1474.47 496.866 1472.25 496.662 1470.2 497.258C1468.15 497.854 1466.43 499.201 1465.42 501.002C1449.18 530.053 1428.51 556.655 1404.08 579.94C1348.24 633.018 1275.11 666.458 1196.67 674.776C1118.24 683.093 1039.17 665.793 972.424 625.714C876.765 568.151 822.364 454.357 769.741 344.356C715.609 231.279 659.7 114.359 558.224 53.2074C500.017 18.2952 432.584 -0.156879 363.781 0.00101128V0.00101128Z" fill="url(#paint0_linear_161_1353)"/>
<defs>
<linearGradient id="paint0_linear_161_1353" x1="46.7244" y1="484.371" x2="1372.02" y2="179.451" gradientUnits="userSpaceOnUse">
<stop stop-color="#DC0836"/>
<stop offset="1" stop-color="#535E79"/>
</linearGradient>
</defs>
</svg>
